<?xml version="1.0" standalone="no"?>
<!DOCTYPE svg PUBLIC "-//W3C//DTD SVG 20010904//EN"
 "http://www.w3.org/TR/2001/REC-SVG-20010904/DTD/svg10.dtd">
<svg version="1.0" xmlns="http://www.w3.org/2000/svg"
 width="408.000000pt" height="408.000000pt" viewBox="0 0 408.000000 408.000000"
 preserveAspectRatio="xMidYMid meet">
<metadata>
Created by potrace 1.14, written by Peter Selinger 2001-2017
</metadata>
<g transform="translate(0.000000,408.000000) scale(0.100000,-0.100000)"
fill="#000000" stroke="none">
<path d="M1975 4060 c-77 -18 -165 -87 -165 -131 0 -10 20 -63 44 -116 45
-101 88 -228 101 -298 9 -44 9 -44 19 -128 l7 -59 -56 69 c-190 228 -395 366
-645 432 -259 69 -520 40 -790 -87 -104 -49 -297 -164 -312 -186 -6 -8 50 -56
66 -56 4 0 33 -13 226 -103 107 -49 190 -82 287 -113 84 -26 116 -44 79 -44
-14 0 -139 -62 -217 -107 -118 -68 -265 -208 -344 -328 -162 -243 -223 -525
-191 -880 4 -44 9 -87 11 -95 2 -8 7 -28 10 -45 9 -55 14 -73 35 -152 64 -226
176 -469 306 -664 38 -56 80 -119 93 -138 13 -20 27 -38 30 -41 4 -3 43 -48
88 -100 73 -85 229 -243 294 -295 253 -206 519 -342 744 -380 76 -13 231 -13
292 -1 49 11 74 11 128 1 67 -13 217 -13 290 0 163 28 345 101 502 201 29 19
56 34 59 34 2 0 10 5 17 10 7 6 37 29 67 51 173 128 368 324 512 514 54 72
138 194 138 202 0 3 8 17 19 31 54 77 165 316 214 462 75 225 91 321 91 560 1
173 -3 233 -18 305 -23 106 -59 220 -91 285 -52 105 -152 240 -229 310 -22 19
-47 42 -55 51 -31 30 -147 107 -216 142 l-69 36 29 11 c65 26 152 74 200 110
72 54 167 149 163 163 -7 20 -226 164 -339 222 -125 64 -232 100 -347 115 -92
12 -240 12 -287 -1 -16 -4 -41 -10 -55 -13 -86 -15 -211 -75 -304 -145 -83
-63 -133 -115 -208 -216 -58 -77 -77 -101 -66 -80 10 17 20 144 19 235 0 106
-9 180 -35 315 -9 47 -27 101 -39 116 -15 19 -62 28 -102 19z"/>
</g>
</svg>
