<svg xmlns="http://www.w3.org/2000/svg" version="1.1" xmlns:xlink="http://www.w3.org/1999/xlink" xmlns:svgjs="http://svgjs.dev/svgjs" viewBox="0 0 800 800"><defs><filter id="bbburst-blur-1" x="-100%" y="-100%" width="400%" height="400%"><feGaussianBlur in="SourceGraphic" stdDeviation="1"></feGaussianBlur></filter><filter id="bbburst-blur-2" x="-100%" y="-100%" width="400%" height="400%"><feGaussianBlur in="SourceGraphic" stdDeviation="2"></feGaussianBlur></filter><filter id="bbburst-blur-3" x="-100%" y="-100%" width="400%" height="400%"><feGaussianBlur in="SourceGraphic" stdDeviation="4"></feGaussianBlur></filter><filter id="bbburst-blur-4" x="-100%" y="-100%" width="400%" height="400%"><feGaussianBlur in="SourceGraphic" stdDeviation="12"></feGaussianBlur></filter><symbol id="bbburst-shape-1" viewBox="0 0 194 167"><path d="m97 0 96.129 166.5H.871L97 0Z"></path></symbol><symbol id="bbburst-shape-4" viewBox="0 0 149 143"><path d="M71.647 2.781c.898-2.764 4.808-2.764 5.706 0l15.445 47.534a3 3 0 0 0 2.853 2.073h49.98c2.906 0 4.115 3.719 1.764 5.427L106.96 87.193a2.999 2.999 0 0 0-1.09 3.354l15.445 47.534c.898 2.764-2.266 5.062-4.617 3.354l-40.435-29.378a3 3 0 0 0-3.526 0l-40.435 29.378c-2.351 1.708-5.515-.59-4.617-3.354L43.13 90.547a3 3 0 0 0-1.09-3.354L1.605 57.815c-2.35-1.708-1.142-5.427 1.764-5.427h49.98a3 3 0 0 0 2.853-2.073L71.647 2.781Z"></path></symbol><symbol id="bbburst-shape-6" viewBox="0 0 133 116"><path d="M59.7487 10.2513c-13.6683-13.66839-35.8291-13.66839-49.4974 0-13.66839 13.6683-13.66839 35.8291 0 49.4974l49.4974-49.4974ZM66.5 66.5 41.7513 91.2487 66.5 115.997l24.7487-24.7483L66.5 66.5Zm56.249-6.7513c13.668-13.6683 13.668-35.8291 0-49.4974-13.669-13.66839-35.8294-13.66839-49.4977 0l49.4977 49.4974Zm-112.4977 0 31.5 31.5 49.4974-49.4974-31.5-31.5-49.4974 49.4974Zm80.9974 31.5 31.5003-31.5-49.4977-49.4974-31.5 31.5 49.4974 49.4974Z"></path></symbol><symbol id="bbburst-shape-8" viewBox="0 0 87 168"><path d="m12 12 31.2546 18.0749c16.4102 9.4902 20.014 31.6325 7.4603 45.8369L36.3296 92.1884c-12.5684 14.2206-8.9394 36.3916 7.5068 45.8636L75 156" stroke-width="14" stroke-linecap="round" stroke-linejoin="round"></path></symbol><symbol id="bbburst-shape-10" viewBox="0 0 145 145"><circle cx="72.5" cy="72.5" r="61.5" fill="none" stroke-width="22"></circle></symbol></defs><use xlink:href="#bbburst-shape-10" width="28.985910339338275" opacity="0.560156836329267" transform="matrix(0.9951337960477331,-0.09853287757712453,0.09853287757712453,0.9951337960477331,249.68686649472505,-169.4494938185475)" fill="none" stroke="#2c2891" filter="url(#bbburst-blur-1)"></use><use xlink:href="#bbburst-shape-6" width="39.983264565552076" opacity="0.32717568829984833" transform="matrix(1.0451414280090963,-0.6856962851431435,0.6856962851431435,1.0451414280090963,-195.9203749413382,30.592684904705948)" fill="#2c2891" filter="url(#bbburst-blur-3)"></use><use xlink:href="#bbburst-shape-4" width="46.156331528431636" opacity="0.08806883297480594" transform="matrix(1.3698451649644146,1.0890473929189746,-1.0890473929189746,1.3698451649644146,445.17130051961635,-372.1962562052412)" fill="#ff5c58" filter="url(#bbburst-blur-4)"></use><use xlink:href="#bbburst-shape-6" width="16.106926110553726" opacity="0.8095499808778994" transform="matrix(0.9719494863686403,-0.23518970204440565,0.23518970204440565,0.9719494863686403,286.97238614513515,98.09193418934552)" fill="#00a19d"></use><use xlink:href="#bbburst-shape-4" width="12.342737619562078" opacity="0.9147564112528859" transform="matrix(0.932035095196661,-0.3623680191762944,0.3623680191762944,0.932035095196661,284.1547308951431,13.40302617708511)" fill="#00a19d"></use><use xlink:href="#bbburst-shape-10" width="32.14269091684655" opacity="0.46844058977948577" transform="matrix(0.8665353752183694,0.49911566144047187,-0.49911566144047187,0.8665353752183694,377.6609168345507,-72.65654868037234)" fill="none" stroke="#ffbd9b" filter="url(#bbburst-blur-2)"></use><use xlink:href="#bbburst-shape-1" width="25.6979880019742" opacity="0.6906543675302618" transform="matrix(0.8649189338149391,-0.5019115837758967,0.5019115837758967,0.8649189338149391,255.03854409444352,-61.56601238549365)" fill="#ffbd9b" filter="url(#bbburst-blur-1)"></use><use xlink:href="#bbburst-shape-6" width="25.36708463810591" opacity="0.5148401500950931" transform="matrix(0.9990996750024839,0.042424514256866816,-0.042424514256866816,0.9990996750024839,185.97960485647513,-1.4784310008082002)" fill="#00a19d" filter="url(#bbburst-blur-2)"></use><use xlink:href="#bbburst-shape-1" width="23.915311951147054" opacity="0.7179349076778239" transform="matrix(0.8786273101759694,0.47750816727354617,-0.47750816727354617,0.8786273101759694,515.6957090560757,-66.28386063629443)" fill="#ffbd9b" filter="url(#bbburst-blur-1)"></use><use xlink:href="#bbburst-shape-8" width="14.242809511229096" opacity="0.8842373995076482" transform="matrix(0.9897459471257388,0.14283893078630305,-0.14283893078630305,0.9897459471257388,424.14151459615323,48.256523452799854)" fill="none" stroke="#ffbd9b"></use><use xlink:href="#bbburst-shape-1" width="37.50403370828951" opacity="0.0486478625863932" transform="matrix(1.4191941383454785,-1.023908197879983,1.023908197879983,1.4191941383454785,321.75847420629,86.52779723209096)" fill="#00a19d" filter="url(#bbburst-blur-4)"></use><use xlink:href="#bbburst-shape-6" width="13.963164954500666" opacity="0.8222752472659511" transform="matrix(0.994273759371394,-0.10686295628268663,0.10686295628268663,0.994273759371394,416.48255080333337,47.956666366050456)" fill="#ff5c58"></use><use xlink:href="#bbburst-shape-8" width="17.357590802021498" opacity="0.8287447038534348" transform="matrix(0.7463765501191035,0.6655238879501661,-0.6655238879501661,0.7463765501191035,634.8772486941177,22.726585014293732)" fill="none" stroke="#ff5c58"></use><use xlink:href="#bbburst-shape-6" width="34.81363371687967" opacity="0.2695375712428778" transform="matrix(1.2498060008103065,0.022021815060257393,-0.022021815060257393,1.2498060008103065,712.4020667462794,-53.42900651314096)" fill="#00a19d" filter="url(#bbburst-blur-3)"></use><use xlink:href="#bbburst-shape-10" width="28.1387807740092" opacity="0.3862707191558292" transform="matrix(0.9999796796773507,0.006374969206452813,-0.006374969206452813,0.9999796796773507,597.0242174999768,180.9821243351226)" fill="none" stroke="#ffbd9b" filter="url(#bbburst-blur-2)"></use><use xlink:href="#bbburst-shape-6" width="28.364871259699626" opacity="0.6028670528693651" transform="matrix(0.999526780281412,0.03076061605810279,-0.03076061605810279,0.999526780281412,322.47593333731425,161.660393390463)" fill="#2c2891" filter="url(#bbburst-blur-1)"></use><use xlink:href="#bbburst-shape-8" width="31.89907670803224" opacity="0.4258385289921235" transform="matrix(0.7894297682314858,0.6138408922758264,-0.6138408922758264,0.7894297682314858,533.5754582143504,312.9372200617764)" fill="none" stroke="#2c2891" filter="url(#bbburst-blur-2)"></use><use xlink:href="#bbburst-shape-10" width="22.474188008069127" opacity="0.11293933494000719" transform="matrix(1.201910109246145,-0.34338329792218986,0.34338329792218986,1.201910109246145,95.02999103429508,291.32333104716594)" fill="none" stroke="#ff5c58" filter="url(#bbburst-blur-3)"></use><use xlink:href="#bbburst-shape-6" width="35.23789008403964" opacity="0.4433894899886043" transform="matrix(0.9950500344862492,0.09937519242202444,-0.09937519242202444,0.9950500344862492,212.1930748862262,136.71024261883366)" fill="#ffbd9b" filter="url(#bbburst-blur-2)"></use><use xlink:href="#bbburst-shape-8" width="15.474831907654496" opacity="0.8994840461181292" transform="matrix(0.999290605552053,0.037660133502303156,-0.037660133502303156,0.999290605552053,448.83231008413634,17.983643758579035)" fill="none" stroke="#ffbd9b"></use><use xlink:href="#bbburst-shape-10" width="38.227515262370225" opacity="0.03265407452495672" transform="matrix(1.259677911681298,-1.2147886889588015,1.2147886889588015,1.259677911681298,140.19062493854187,-436.8813527941557)" fill="none" stroke="#2c2891" filter="url(#bbburst-blur-4)"></use><use xlink:href="#bbburst-shape-10" width="9.827311774094845" opacity="0.984745227563811" transform="matrix(0.9773604635735121,-0.21158101106519342,0.21158101106519342,0.9773604635735121,317.31159484624067,11.36403926057875)" fill="none" stroke="#00a19d"></use><use xlink:href="#bbburst-shape-8" width="20.246283565968557" opacity="0.8089314233468304" transform="matrix(0.898661305835213,-0.4386432005566139,0.4386432005566139,0.898661305835213,301.4124961368209,43.435509707996914)" fill="none" stroke="#2c2891"></use><use xlink:href="#bbburst-shape-8" width="26.80613445960292" opacity="0.4807988022941446" transform="matrix(0.8728071061129631,0.48806531890589694,-0.48806531890589694,0.8728071061129631,602.0573901204381,-188.56901691674673)" fill="none" stroke="#2c2891" filter="url(#bbburst-blur-2)"></use><use xlink:href="#bbburst-shape-4" width="21.6570920993817" opacity="0.6890293231948935" transform="matrix(0.9267894473493778,-0.3755813098143128,0.3755813098143128,0.9267894473493778,226.15695765143087,-105.90666644389682)" fill="#ffa6d5" filter="url(#bbburst-blur-1)"></use><use xlink:href="#bbburst-shape-10" width="33.12833274351002" opacity="0.18691917754625387" transform="matrix(1.1042219131771311,-0.5858275910704756,0.5858275910704756,1.1042219131771311,187.87133506862995,-395.6238109288844)" fill="none" stroke="#ff5c58" filter="url(#bbburst-blur-3)"></use><use xlink:href="#bbburst-shape-6" width="33.65639749787803" opacity="0.49932380038945423" transform="matrix(0.9999202817451066,0.012626565439053446,-0.012626565439053446,0.9999202817451066,361.04698692138203,223.47900445582638)" fill="#2c2891" filter="url(#bbburst-blur-2)"></use><use xlink:href="#bbburst-shape-4" width="37.85394611367596" opacity="0.3807843848905854" transform="matrix(0.9119477573199083,0.41030633424209983,-0.41030633424209983,0.9119477573199083,274.17557258835853,-29.906291913453913)" fill="#00a19d" filter="url(#bbburst-blur-2)"></use><use xlink:href="#bbburst-shape-10" width="28.454523325516213" opacity="0.2723527126559038" transform="matrix(1.1544234117798915,-0.4793814622349042,0.4793814622349042,1.1544234117798915,42.395351574275395,236.40830101140062)" fill="none" stroke="#2c2891" filter="url(#bbburst-blur-3)"></use><use xlink:href="#bbburst-shape-8" width="24.634030278121337" opacity="0.6992278652221928" transform="matrix(0.7351855326942589,0.6778659399299088,-0.6778659399299088,0.7351855326942589,795.1358129715923,72.71613829311445)" fill="none" stroke="#00a19d" filter="url(#bbburst-blur-1)"></use><use xlink:href="#bbburst-shape-10" width="31.39772340346534" opacity="0.1350719278451431" transform="matrix(0.9044072125777042,0.862871713429886,-0.862871713429886,0.9044072125777042,876.9580052593237,-336.1028018374929)" fill="none" stroke="#ffa6d5" filter="url(#bbburst-blur-3)"></use><use xlink:href="#bbburst-shape-6" width="28.810958446964598" opacity="0.28830976240291695" transform="matrix(1.2497907473803402,0.022871111964448042,-0.022871111964448042,1.2497907473803402,538.0238532608362,-384.8386274286163)" fill="#ffa6d5" filter="url(#bbburst-blur-3)"></use><use xlink:href="#bbburst-shape-4" width="33.77317181097192" opacity="0.35888498180003314" transform="matrix(0.9387775516656283,0.3445238866736072,-0.3445238866736072,0.9387775516656283,808.7414364129991,-12.632953726127141)" fill="#ffa6d5" filter="url(#bbburst-blur-2)"></use><use xlink:href="#bbburst-shape-8" width="49.512791340292694" opacity="0.17794665585794978" transform="matrix(0.9591763977005475,-0.8015488993780735,0.8015488993780735,0.9591763977005475,-209.4336417644502,-221.86304311226814)" fill="none" stroke="#2c2891" filter="url(#bbburst-blur-3)"></use><use xlink:href="#bbburst-shape-4" width="36.893330498537665" opacity="0.259939147550043" transform="matrix(1.2294505613151605,0.22572398472877625,-0.22572398472877625,1.2294505613151605,310.8206463649628,-389.7168301651882)" fill="#ffa6d5" filter="url(#bbburst-blur-3)"></use><use xlink:href="#bbburst-shape-10" width="30.109460314964462" opacity="0.4032706141725484" transform="matrix(0.8956405408695077,-0.444778620833978,0.444778620833978,0.8956405408695077,398.81203923234267,-141.10873651861687)" fill="none" stroke="#00a19d" filter="url(#bbburst-blur-2)"></use><use xlink:href="#bbburst-shape-1" width="35.74980679279392" opacity="0.08839938849822726" transform="matrix(1.643943176955596,-0.5999590243851173,0.5999590243851173,1.643943176955596,329.9114889386346,111.80181284228979)" fill="#2c2891" filter="url(#bbburst-blur-4)"></use><use xlink:href="#bbburst-shape-6" width="17.140496201231784" opacity="0.7286943575810625" transform="matrix(0.9777833688755299,-0.20961794663248542,0.20961794663248542,0.9777833688755299,421.3527588631151,55.46062922653658)" fill="#ff5c58" filter="url(#bbburst-blur-1)"></use><use xlink:href="#bbburst-shape-6" width="30.812009690309672" opacity="0.4907390353469817" transform="matrix(0.9235486229645394,0.38348134377085813,-0.38348134377085813,0.9235486229645394,395.91121389683406,203.5480142432807)" fill="#00a19d" filter="url(#bbburst-blur-2)"></use><use xlink:href="#bbburst-shape-6" width="17.160266690318895" opacity="0.7937044075131905" transform="matrix(0.8426567413101375,0.5384511271457977,-0.5384511271457977,0.8426567413101375,533.9335291768473,2.551436509412497)" fill="#ffa6d5"></use><use xlink:href="#bbburst-shape-6" width="21.031752995243778" opacity="0.5505948660987514" transform="matrix(0.9897094216149112,-0.14309179140215567,0.14309179140215567,0.9897094216149112,531.5759618202792,-29.151883093247193)" fill="#ffa6d5" filter="url(#bbburst-blur-2)"></use><use xlink:href="#bbburst-shape-8" width="24.782157424724577" opacity="0.1482432206790496" transform="matrix(1.1027716444409288,-0.5885530564163693,0.5885530564163693,1.1027716444409288,516.8353217147356,80.26043478845111)" fill="none" stroke="#00a19d" filter="url(#bbburst-blur-3)"></use><use xlink:href="#bbburst-shape-10" width="36.97650036617356" opacity="0.2309522934515662" transform="matrix(1.2499795611767581,-0.00714819140478063,0.00714819140478063,1.2499795611767581,469.060341388459,232.9087887900141)" fill="none" stroke="#2c2891" filter="url(#bbburst-blur-3)"></use><use xlink:href="#bbburst-shape-1" width="16.628308967877516" opacity="0.8302372737257443" transform="matrix(0.7106982214976371,0.7034970063618576,-0.7034970063618576,0.7106982214976371,741.5267647941465,71.50631677868228)" fill="#2c2891"></use><use xlink:href="#bbburst-shape-1" width="20.28932514764108" opacity="0.8572645706205029" transform="matrix(0.9758717434278795,0.21834454510940002,-0.21834454510940002,0.9758717434278795,502.1568195774315,66.74338811428515)" fill="#00a19d"></use><use xlink:href="#bbburst-shape-6" width="19.416684602072806" opacity="0.7060102753667992" transform="matrix(0.889858952919825,0.45623573282726637,-0.45623573282726637,0.889858952919825,542.8248067051555,168.2320767790457)" fill="#ff5c58" filter="url(#bbburst-blur-1)"></use><use xlink:href="#bbburst-shape-8" width="58.296022863130375" opacity="-0.07329415430390607" transform="matrix(1.7396176342423906,-0.19034307613598217,0.19034307613598217,1.7396176342423906,-72.60988133757324,-627.5194124189335)" fill="none" stroke="#00a19d" filter="url(#bbburst-blur-4)"></use><use xlink:href="#bbburst-shape-6" width="36.1098595220478" opacity="0.1891182463003347" transform="matrix(1.0611534461567944,-0.660646171342542,0.660646171342542,1.0611534461567944,-243.61443787082055,-70.90830959010441)" fill="#ffa6d5" filter="url(#bbburst-blur-3)"></use><use xlink:href="#bbburst-shape-8" width="18.440289329745468" opacity="0.8805724087828988" transform="matrix(0.8890028384615581,0.4579016850889421,-0.4579016850889421,0.8890028384615581,591.9723967535467,-10.803048766933784)" fill="none" stroke="#2c2891"></use><use xlink:href="#bbburst-shape-4" width="42.129318941454855" opacity="0.18183517311275477" transform="matrix(1.0789237601125004,0.6312079846331985,-0.6312079846331985,1.0789237601125004,978.4268521348384,-162.99381905360048)" fill="#2c2891" filter="url(#bbburst-blur-3)"></use><use xlink:href="#bbburst-shape-6" width="36.27132333474022" opacity="0.26923977729004434" transform="matrix(1.2056676969039466,-0.3299475786277775,0.3299475786277775,1.2056676969039466,522.3994005531188,-254.68247159075682)" fill="#00a19d" filter="url(#bbburst-blur-3)"></use><use xlink:href="#bbburst-shape-6" width="33.52117844594918" opacity="0.27766284521938667" transform="matrix(1.2191420082530826,0.27603036737402764,-0.27603036737402764,1.2191420082530826,442.42107934134486,229.2711119696396)" fill="#ffa6d5" filter="url(#bbburst-blur-3)"></use><use xlink:href="#bbburst-shape-10" width="26.133510092754364" opacity="0.5455468006323427" transform="matrix(0.9841424506837537,-0.17737992209428718,0.17737992209428718,0.9841424506837537,428.48320913394275,-162.25367464289957)" fill="none" stroke="#ffbd9b" filter="url(#bbburst-blur-2)"></use><use xlink:href="#bbburst-shape-4" width="27.350916363854974" opacity="0.39842017044640365" transform="matrix(0.7813760571928143,0.6240604596077305,-0.6240604596077305,0.7813760571928143,893.1730965420716,171.89315109678535)" fill="#ffa6d5" filter="url(#bbburst-blur-2)"></use><use xlink:href="#bbburst-shape-6" width="49.806950409744914" opacity="-0.07921150525292986" transform="matrix(1.679969848391953,0.4901033651118084,-0.4901033651118084,1.679969848391953,891.5201406306068,65.1914895088222)" fill="#00a19d" filter="url(#bbburst-blur-4)"></use><use xlink:href="#bbburst-shape-1" width="14.393872908359185" opacity="0.8008227635479245" transform="matrix(0.8864436339237913,0.46283656281238555,-0.46283656281238555,0.8864436339237913,525.5628502830891,114.25373029742798)" fill="#ffa6d5"></use><use xlink:href="#bbburst-shape-10" width="38.676050388256535" opacity="0.06648156171700748" transform="matrix(1.4955351606645917,-0.9087764209176722,0.9087764209176722,1.4955351606645917,-343.5885344009913,49.92134073564307)" fill="none" stroke="#ffa6d5" filter="url(#bbburst-blur-4)"></use><use xlink:href="#bbburst-shape-10" width="21.980884020899257" opacity="0.43432398347603973" transform="matrix(0.7523777950017438,-0.6587318525684893,0.6587318525684893,0.7523777950017438,225.9488769187563,-128.7655767660005)" fill="none" stroke="#2c2891" filter="url(#bbburst-blur-2)"></use><use xlink:href="#bbburst-shape-6" width="36.52348856642517" opacity="0.18152981792684286" transform="matrix(1.03803554175363,-0.6964066441787066,0.6964066441787066,1.03803554175363,19.798438297724488,-361.406993767814)" fill="#ffbd9b" filter="url(#bbburst-blur-3)"></use><use xlink:href="#bbburst-shape-4" width="18.022797373606224" opacity="0.7575839921436283" transform="matrix(0.9631159813235909,-0.26908661527303157,0.26908661527303157,0.9631159813235909,175.75910732578745,1.357968048334044)" fill="#00a19d" filter="url(#bbburst-blur-1)"></use><use xlink:href="#bbburst-shape-10" width="14.565744934941481" opacity="0.9329836163133886" transform="matrix(0.9860078992908551,0.16669859788263047,-0.16669859788263047,0.9860078992908551,461.08546740274096,34.498387350578525)" fill="none" stroke="#ffbd9b"></use><use xlink:href="#bbburst-shape-6" width="43.12482746759436" opacity="0.10367931044996115" transform="matrix(1.2858361667378813,-1.1870658584547158,1.1870658584547158,1.2858361667378813,-354.5852628870317,226.1678591084438)" fill="#ffbd9b" filter="url(#bbburst-blur-4)"></use><use xlink:href="#bbburst-shape-10" width="31.178608022182143" opacity="0.06126123329308031" transform="matrix(1.6542543197896078,0.5709138686854807,-0.5709138686854807,1.6542543197896078,379.0580522697452,-629.0548082197924)" fill="none" stroke="#ffa6d5" filter="url(#bbburst-blur-4)"></use><use xlink:href="#bbburst-shape-10" width="29.457135110876727" opacity="0.626042243310378" transform="matrix(0.7870722856959576,0.616860776098903,-0.616860776098903,0.7870722856959576,648.2733190691938,243.85426961411724)" fill="none" stroke="#ffa6d5" filter="url(#bbburst-blur-1)"></use><use xlink:href="#bbburst-shape-4" width="27.401883136816707" opacity="0.18226833001060272" transform="matrix(1.107252273264697,0.5800796525910565,-0.5800796525910565,1.107252273264697,983.9233379795611,-76.58283409066536)" fill="#ffa6d5" filter="url(#bbburst-blur-3)"></use><use xlink:href="#bbburst-shape-1" width="37.46937435437916" opacity="0.1605993824330999" transform="matrix(1.2200145321494178,-0.2721480136694685,0.2721480136694685,1.2200145321494178,528.9483571918379,190.54007499777714)" fill="#2c2891" filter="url(#bbburst-blur-3)"></use><use xlink:href="#bbburst-shape-6" width="48.28786191682158" opacity="-0.08591487640998507" transform="matrix(1.553425955156766,0.8058336067981341,-0.8058336067981341,1.553425955156766,343.40406522041104,108.7749813809288)" fill="#2c2891" filter="url(#bbburst-blur-4)"></use><use xlink:href="#bbburst-shape-8" width="24.95142836563423" opacity="0.5612307383825086" transform="matrix(0.8676313708040505,0.49720800918396746,-0.49720800918396746,0.8676313708040505,550.3756740109188,-147.0723977670292)" fill="none" stroke="#ff5c58" filter="url(#bbburst-blur-1)"></use><use xlink:href="#bbburst-shape-10" width="43.59434866981832" opacity="0.16502564709489198" transform="matrix(1.0796430306741471,0.6299769252256329,-0.6299769252256329,1.0796430306741471,263.50151819329045,43.77788701848692)" fill="none" stroke="#2c2891" filter="url(#bbburst-blur-3)"></use><use xlink:href="#bbburst-shape-1" width="24.508914064475995" opacity="0.5983749707145858" transform="matrix(0.9990597636126738,-0.04335422390250327,0.04335422390250327,0.9990597636126738,228.48377897444968,112.82645469934783)" fill="#2c2891" filter="url(#bbburst-blur-1)"></use><use xlink:href="#bbburst-shape-10" width="31.277907232196746" opacity="0.47653984456090315" transform="matrix(0.978144838524925,-0.2079246855643854,0.2079246855643854,0.978144838524925,76.66561887515849,82.14939221012037)" fill="none" stroke="#00a19d" filter="url(#bbburst-blur-2)"></use><use xlink:href="#bbburst-shape-4" width="16.40266571161009" opacity="0.7777980741054635" transform="matrix(0.8317689687927012,-0.5551219528657882,0.5551219528657882,0.8317689687927012,182.29589223652135,-27.50878541812068)" fill="#ffa6d5"></use><use xlink:href="#bbburst-shape-10" width="25.834136171272284" opacity="0.637373404863164" transform="matrix(0.9835974999849578,0.1803772658162353,-0.1803772658162353,0.9835974999849578,306.7624057116749,61.81714767440775)" fill="none" stroke="#00a19d" filter="url(#bbburst-blur-1)"></use><use xlink:href="#bbburst-shape-10" width="27.164535046332603" opacity="0.7180909226342913" transform="matrix(0.9909907485201819,-0.13393034139958632,0.13393034139958632,0.9909907485201819,436.95243479280595,-67.24400084263635)" fill="none" stroke="#00a19d" filter="url(#bbburst-blur-1)"></use><use xlink:href="#bbburst-shape-10" width="18.02607260818065" opacity="0.622764396008507" transform="matrix(0.8112970997249316,-0.5846340872527998,0.5846340872527998,0.8112970997249316,285.8270650853068,193.3999290801038)" fill="none" stroke="#ff5c58" filter="url(#bbburst-blur-1)"></use><use xlink:href="#bbburst-shape-10" width="35.51494263943431" opacity="0.494192204044002" transform="matrix(0.9301433674701747,0.3671965630983543,-0.3671965630983543,0.9301433674701747,655.723609634799,211.40188261801444)" fill="none" stroke="#ffbd9b" filter="url(#bbburst-blur-2)"></use><use xlink:href="#bbburst-shape-6" width="20.427711080699112" opacity="0.5665876982177271" transform="matrix(0.8518694792800598,-0.5237541315074465,0.5237541315074465,0.8518694792800598,355.333313375983,-24.41611833092753)" fill="#2c2891" filter="url(#bbburst-blur-1)"></use><use xlink:href="#bbburst-shape-10" width="41.200165541196355" opacity="0.39739131589846177" transform="matrix(0.9946395095308709,-0.10340331754923823,0.10340331754923823,0.9946395095308709,264.6909162389524,-256.76054504060875)" fill="none" stroke="#00a19d" filter="url(#bbburst-blur-2)"></use><use xlink:href="#bbburst-shape-4" width="31.31577468752444" opacity="0.18648993424460636" transform="matrix(1.225367922671692,0.2469280342271053,-0.2469280342271053,1.225367922671692,496.04885671081115,271.7300625544098)" fill="#2c2891" filter="url(#bbburst-blur-3)"></use><use xlink:href="#bbburst-shape-8" width="25.088598278530604" opacity="0.5351907319485298" transform="matrix(0.9625887547725355,0.2709665831527195,-0.2709665831527195,0.9625887547725355,680.0484654562509,111.51753079135506)" fill="none" stroke="#00a19d" filter="url(#bbburst-blur-2)"></use><use xlink:href="#bbburst-shape-8" width="22.4213753819942" opacity="0.6033948741161413" transform="matrix(0.9433389024955582,-0.33183085305389526,0.33183085305389526,0.9433389024955582,297.67208995137906,-147.31930571119548)" fill="none" stroke="#00a19d" filter="url(#bbburst-blur-1)"></use><use xlink:href="#bbburst-shape-8" width="15.530012040673025" opacity="0.8519599726956824" transform="matrix(0.9380749556432451,0.3464323564491685,-0.3464323564491685,0.9380749556432451,465.63132213150755,10.808041442268745)" fill="none" stroke="#ffbd9b"></use><use xlink:href="#bbburst-shape-4" width="23.617742935916837" opacity="0.6194998440987693" transform="matrix(0.9723798192926111,-0.23340412813930503,0.23340412813930503,0.9723798192926111,366.2070456242591,169.61486435766386)" fill="#2c2891" filter="url(#bbburst-blur-1)"></use><use xlink:href="#bbburst-shape-6" width="23.429506679263746" opacity="0.6295280892213013" transform="matrix(0.8532476195289752,-0.5215059920730893,0.5215059920730893,0.8532476195289752,345.12027834871355,96.26501080084597)" fill="#2c2891" filter="url(#bbburst-blur-1)"></use><use xlink:href="#bbburst-shape-10" width="21.244156502068087" opacity="0.7513929167771894" transform="matrix(0.8941140947380528,-0.4478392407893175,0.4478392407893175,0.8941140947380528,240.37258094934796,155.1589490018439)" fill="none" stroke="#00a19d" filter="url(#bbburst-blur-1)"></use><use xlink:href="#bbburst-shape-1" width="21.594015914247443" opacity="0.6941553273353602" transform="matrix(0.8172323710949158,-0.5763082956496304,0.5763082956496304,0.8172323710949158,43.68583632210584,6.847207756854118)" fill="#2c2891" filter="url(#bbburst-blur-1)"></use><use xlink:href="#bbburst-shape-4" width="43.336696030026026" opacity="0.06380545641966828" transform="matrix(1.5221265912884971,0.8634990678005741,-0.8634990678005741,1.5221265912884971,1068.6268491440367,-452.3879077685783)" fill="#ffa6d5" filter="url(#bbburst-blur-4)"></use><use xlink:href="#bbburst-shape-10" width="17.23394531147205" opacity="0.760631857028983" transform="matrix(0.8354059740610675,-0.5496333855426533,0.5496333855426533,0.8354059740610675,73.75033320139093,112.55577334272141)" fill="none" stroke="#2c2891" filter="url(#bbburst-blur-1)"></use><use xlink:href="#bbburst-shape-6" width="27.046711791546606" opacity="0.3336851669622949" transform="matrix(0.753077155757269,0.6579322134358083,-0.6579322134358083,0.753077155757269,670.5125414163472,-209.45723025930386)" fill="#2c2891" filter="url(#bbburst-blur-2)"></use><use xlink:href="#bbburst-shape-4" width="16.463948059589793" opacity="0.8507333210984607" transform="matrix(0.9792996023392433,0.20241612795970595,-0.20241612795970595,0.9792996023392433,410.80998343894953,32.24900288897885)" fill="#ffa6d5"></use><use xlink:href="#bbburst-shape-4" width="36.06224858164128" opacity="-0.08500666563872206" transform="matrix(1.641347598251716,0.607023938336309,-0.607023938336309,1.641347598251716,964.270217153744,-606.7486238756542)" fill="#00a19d" filter="url(#bbburst-blur-4)"></use><use xlink:href="#bbburst-shape-4" width="18.713975133262522" opacity="0.7378056149747309" transform="matrix(0.8513314258780157,-0.5246282524917092,0.5246282524917092,0.8513314258780157,258.12857859548615,154.69386313104292)" fill="#2c2891" filter="url(#bbburst-blur-1)"></use><use xlink:href="#bbburst-shape-8" width="25.641024452614527" opacity="0.6634177872406641" transform="matrix(0.9999940728084119,0.003443014383441904,-0.003443014383441904,0.9999940728084119,237.18477788582237,5.178626274840553)" fill="none" stroke="#00a19d" filter="url(#bbburst-blur-1)"></use><use xlink:href="#bbburst-shape-4" width="15.561783625909975" opacity="0.8770094706398627" transform="matrix(0.9672831860077505,0.2536991093139576,-0.2536991093139576,0.9672831860077505,453.59010579025045,-26.74517270371365)" fill="#ffbd9b"></use><use xlink:href="#bbburst-shape-4" width="28.059760103285274" opacity="0.4097621512476384" transform="matrix(0.9730067497270923,-0.23077665606711523,0.23077665606711523,0.9730067497270923,539.3845453331077,-87.70017852203068)" fill="#00a19d" filter="url(#bbburst-blur-2)"></use><use xlink:href="#bbburst-shape-4" width="23.871504156741015" opacity="0.4851747389953287" transform="matrix(0.9977785024097316,0.06661876709301255,-0.06661876709301255,0.9977785024097316,645.2920175206697,22.828737643328623)" fill="#ffbd9b" filter="url(#bbburst-blur-2)"></use><use xlink:href="#bbburst-shape-8" width="29.98656683238318" opacity="0.4411028505933676" transform="matrix(0.8661382572568257,0.49980448108846404,-0.49980448108846404,0.8661382572568257,636.4261963594186,292.63725709951393)" fill="none" stroke="#ffbd9b" filter="url(#bbburst-blur-2)"></use><use xlink:href="#bbburst-shape-4" width="12.762558288349691" opacity="0.9332076063150675" transform="matrix(0.9999526789416081,-0.009728302909617504,0.009728302909617504,0.9999526789416081,360.016970988645,4.638576791090657)" fill="#00a19d"></use><use xlink:href="#bbburst-shape-4" width="30.031705131655816" opacity="0.24872333325096707" transform="matrix(1.192192359437429,-0.37573578229790155,0.37573578229790155,1.192192359437429,525.5424738517632,96.18338043419539)" fill="#00a19d" filter="url(#bbburst-blur-3)"></use><use xlink:href="#bbburst-shape-10" width="26.793313411832905" opacity="0.5917368574095493" transform="matrix(0.9560359404551607,0.2932495192801114,-0.2932495192801114,0.9560359404551607,329.0226631183368,-40.77567196345319)" fill="none" stroke="#ffa6d5" filter="url(#bbburst-blur-1)"></use><use xlink:href="#bbburst-shape-8" width="14.12020347053523" opacity="0.9369487994529324" transform="matrix(0.7874337595855686,-0.6163992815253251,0.6163992815253251,0.7874337595855686,138.64451424375275,62.550774387734805)" fill="none" stroke="#ff5c58"></use><use xlink:href="#bbburst-shape-4" width="33.77535343592568" opacity="0.3084107073111161" transform="matrix(1.1764128513525955,-0.422555088920316,0.422555088920316,1.1764128513525955,-7.756239732361024,157.84516005256967)" fill="#00a19d" filter="url(#bbburst-blur-3)"></use><use xlink:href="#bbburst-shape-4" width="18.462985635166188" opacity="0.7067045494956617" transform="matrix(0.974663967234416,0.22367420721860035,-0.22367420721860035,0.974663967234416,392.67573262545756,106.63519191692461)" fill="#00a19d" filter="url(#bbburst-blur-1)"></use><use xlink:href="#bbburst-shape-1" width="14.515170045110201" opacity="0.7948672583456081" transform="matrix(0.9301402216863717,0.36720453156412347,-0.36720453156412347,0.9301402216863717,590.6407874771568,-51.964162722106096)" fill="#00a19d"></use><use xlink:href="#bbburst-shape-6" width="35.67401589606137" opacity="0.3147763839589176" transform="matrix(1.0648341313458036,0.6546970847048488,-0.6546970847048488,1.0648341313458036,803.406300116543,225.66267863952822)" fill="#ff5c58" filter="url(#bbburst-blur-3)"></use><use xlink:href="#bbburst-shape-10" width="20.64071616565628" opacity="0.5849811586582555" transform="matrix(0.8362468108647063,0.5483532358969062,-0.5483532358969062,0.8362468108647063,749.8852391382673,-64.69402985356095)" fill="none" stroke="#ffa6d5" filter="url(#bbburst-blur-1)"></use><use xlink:href="#bbburst-shape-10" width="40.091023183461076" opacity="0.2912386454768744" transform="matrix(1.1977649725624766,-0.3575738671972681,0.3575738671972681,1.1977649725624766,-47.43439590658987,-223.93496426246213)" fill="none" stroke="#ff5c58" filter="url(#bbburst-blur-3)"></use><use xlink:href="#bbburst-shape-4" width="40.63150649956436" opacity="0.2650071205168202" transform="matrix(0.9606193721009313,0.7998189932381029,-0.7998189932381029,0.9606193721009313,407.2742807348957,152.77417920418253)" fill="#00a19d" filter="url(#bbburst-blur-3)"></use><use xlink:href="#bbburst-shape-6" width="27.57009005460118" opacity="0.5801610081972828" transform="matrix(0.998981664456405,0.04511800172780956,-0.04511800172780956,0.998981664456405,264.37356651748576,-127.1823354769922)" fill="#00a19d" filter="url(#bbburst-blur-1)"></use><use xlink:href="#bbburst-shape-8" width="40.06005357039826" opacity="0.18297363486388096" transform="matrix(1.1783120009913635,0.41722994657590134,-0.41722994657590134,1.1783120009913635,796.0447146701512,-346.68468565504645)" fill="none" stroke="#ffa6d5" filter="url(#bbburst-blur-3)"></use><use xlink:href="#bbburst-shape-4" width="34.80377693038906" opacity="0.39955758560664" transform="matrix(0.9498465812849765,0.3127162803904566,-0.3127162803904566,0.9498465812849765,332.26257153275816,-190.12156577891767)" fill="#ffa6d5" filter="url(#bbburst-blur-2)"></use></svg>