<svg width="1347" height="683" viewBox="0 0 1347 683" fill="none" xmlns="http://www.w3.org/2000/svg">
<g opacity="0.26">
<circle cx="848" cy="10" r="20" transform="rotate(90 848 10)" fill="white"/>
<circle cx="839.485" cy="64.0767" r="20" transform="rotate(107.98 839.485 64.0767)" fill="white"/>
<circle cx="814.6" cy="112.854" r="20" transform="rotate(126.033 814.6 112.854)" fill="white"/>
<circle cx="775.961" cy="151.521" r="20" transform="rotate(143.758 775.961 151.521)" fill="white"/>
<circle cx="727.123" cy="176.47" r="20" transform="rotate(161.804 727.123 176.47)" fill="white"/>
<circle cx="672.31" cy="184.999" r="20" transform="rotate(-179.779 672.31 184.999)" fill="white"/>
<circle cx="618.254" cy="176.266" r="20" transform="rotate(-161.804 618.254 176.266)" fill="white"/>
<circle cx="569.59" cy="151.192" r="20" transform="rotate(-143.758 569.59 151.192)" fill="white"/>
<circle cx="531.007" cy="112.311" r="20" transform="rotate(-125.824 531.007 112.311)" fill="white"/>
<circle cx="506.311" cy="63.4429" r="20" transform="rotate(-107.764 506.311 63.4429)" fill="white"/>
<circle cx="498.006" cy="8.62058" r="20" transform="rotate(-89.5577 498.006 8.62058)" fill="white"/>
</g>
<g opacity="0.23">
<circle cx="907" cy="14" r="20" transform="rotate(90 907 14)" fill="white"/>
<circle cx="899.784" cy="71.7628" r="20" transform="rotate(104.293 899.784 71.7628)" fill="white"/>
<circle cx="878.402" cy="125.933" r="20" transform="rotate(118.671 878.402 125.933)" fill="white"/>
<circle cx="843.926" cy="173.419" r="20" transform="rotate(133.126 843.926 173.419)" fill="white"/>
<circle cx="798.867" cy="210.751" r="20" transform="rotate(147.533 798.867 210.751)" fill="white"/>
<circle cx="746.06" cy="235.643" r="20" transform="rotate(161.804 746.06 235.643)" fill="white"/>
<circle cx="688.634" cy="246.548" r="20" transform="rotate(176.242 688.634 246.548)" fill="white"/>
<circle cx="629.439" cy="242.743" r="20" transform="rotate(-169.201 629.439 242.743)" fill="white"/>
<circle cx="574.009" cy="224.514" r="20" transform="rotate(-154.725 574.009 224.514)" fill="white"/>
<circle cx="524.818" cy="192.987" r="20" transform="rotate(-140.207 524.818 192.987)" fill="white"/>
<circle cx="484.947" cy="150.22" r="20" transform="rotate(-125.824 484.947 150.22)" fill="white"/>
<circle cx="457.003" cy="99.0297" r="20" transform="rotate(-111.427 457.003 99.0297)" fill="white"/>
<circle cx="442.772" cy="42.8725" r="20" transform="rotate(-97.0655 442.772 42.8725)" fill="white"/>
<circle cx="443.003" cy="-16.6908" r="20" transform="rotate(-82.4943 443.003 -16.6908)" fill="white"/>
</g>
<g opacity="0.2">
<circle cx="981.144" cy="4" r="20" transform="rotate(-90 981.144 4)" fill="white"/>
<circle cx="365.154" cy="6.42774" r="20" transform="rotate(89.5577 365.154 6.42774)" fill="white"/>
<circle cx="370.172" cy="59.7229" r="20" transform="rotate(79.6395 370.172 59.7229)" fill="white"/>
<circle cx="384.211" cy="110.926" r="20" transform="rotate(69.6478 384.211 110.926)" fill="white"/>
<circle cx="406.998" cy="159.117" r="20" transform="rotate(59.6388 406.998 159.117)" fill="white"/>
<circle cx="438.416" cy="203.426" r="20" transform="rotate(49.5818 438.416 203.426)" fill="white"/>
<circle cx="476.995" cy="241.475" r="20" transform="rotate(39.5841 476.995 241.475)" fill="white"/>
<circle cx="520.115" cy="271.356" r="20" transform="rotate(29.7279 520.115 271.356)" fill="white"/>
<circle cx="568.522" cy="293.778" r="20" transform="rotate(19.7065 568.522 293.778)" fill="white"/>
<circle cx="622.006" cy="307.774" r="20" transform="rotate(9.48335 622.006 307.774)" fill="white"/>
<circle cx="676.78" cy="311.979" r="20" transform="rotate(-0.663504 676.78 311.979)" fill="white"/>
<circle cx="729.868" cy="306.788" r="20" transform="rotate(-10.5797 729.868 306.788)" fill="white"/>
<circle cx="780.771" cy="292.675" r="20" transform="rotate(-20.5673 780.771 292.675)" fill="white"/>
<circle cx="828.943" cy="269.749" r="20" transform="rotate(-30.5721 828.943 269.749)" fill="white"/>
<circle cx="873.349" cy="238.064" r="20" transform="rotate(-40.6266 873.349 238.064)" fill="white"/>
<circle cx="911.303" cy="199.32" r="20" transform="rotate(-50.6245 911.303 199.32)" fill="white"/>
<circle cx="941.17" cy="155.854" r="20" transform="rotate(-60.4833 941.17 155.854)" fill="white"/>
<circle cx="963.473" cy="107.079" r="20" transform="rotate(-70.509 963.473 107.079)" fill="white"/>
<circle cx="977.112" cy="53.9683" r="20" transform="rotate(-80.7361 977.112 53.9683)" fill="white"/>
</g>
<g opacity="0.17">
<circle cx="1048.14" cy="7.00024" r="20" transform="rotate(90 1048.14 7.00024)" fill="white"/>
<circle cx="1044.1" cy="62.2656" r="20" transform="rotate(98.3853 1044.1 62.2656)" fill="white"/>
<circle cx="1031.59" cy="117.523" r="20" transform="rotate(107.115 1031.59 117.523)" fill="white"/>
<circle cx="1011.17" cy="169.559" r="20" transform="rotate(115.7 1011.17 169.559)" fill="white"/>
<circle cx="983.321" cy="217.81" r="20" transform="rotate(124.147 983.321 217.81)" fill="white"/>
<circle cx="948.27" cy="261.815" r="20" transform="rotate(132.71 948.27 261.815)" fill="white"/>
<circle cx="907.116" cy="300.072" r="20" transform="rotate(141.25 907.116 300.072)" fill="white"/>
<circle cx="860.741" cy="331.774" r="20" transform="rotate(149.85 860.741 331.774)" fill="white"/>
<circle cx="810.263" cy="356.139" r="20" transform="rotate(158.359 810.263 356.139)" fill="white"/>
<circle cx="756.638" cy="372.67" r="20" transform="rotate(167.015 756.638 372.67)" fill="white"/>
<circle cx="701.174" cy="380.968" r="20" transform="rotate(175.58 701.174 380.968)" fill="white"/>
<circle cx="643.639" cy="380.856" r="20" transform="rotate(-175.58 643.639 380.856)" fill="white"/>
<circle cx="588.241" cy="372.348" r="20" transform="rotate(-167.015 588.241 372.348)" fill="white"/>
<circle cx="534.742" cy="355.634" r="20" transform="rotate(-158.359 534.742 355.634)" fill="white"/>
<circle cx="484.437" cy="331.131" r="20" transform="rotate(-149.85 484.437 331.131)" fill="white"/>
<circle cx="438.269" cy="299.351" r="20" transform="rotate(-141.25 438.269 299.351)" fill="white"/>
<circle cx="397.334" cy="261.079" r="20" transform="rotate(-132.71 397.334 261.079)" fill="white"/>
<circle cx="362.496" cy="217.123" r="20" transform="rotate(-124.147 362.496 217.123)" fill="white"/>
<circle cx="334.835" cy="168.981" r="20" transform="rotate(-115.7 334.835 168.981)" fill="white"/>
<circle cx="314.278" cy="116.158" r="20" transform="rotate(-106.898 314.278 116.158)" fill="white"/>
<circle cx="302.155" cy="62.0521" r="20" transform="rotate(-98.3853 302.155 62.0521)" fill="white"/>
<circle cx="298.154" cy="4.04416" r="20" transform="rotate(-89.5577 298.154 4.04416)" fill="white"/>
</g>
<g opacity="0.14">
<circle cx="1129.14" cy="-4" r="20" transform="rotate(90 1129.14 -4)" fill="white"/>
<circle cx="1125.65" cy="52.7259" r="20" transform="rotate(97.0655 1125.65 52.7259)" fill="white"/>
<circle cx="1115.02" cy="109.047" r="20" transform="rotate(104.293 1115.02 109.047)" fill="white"/>
<circle cx="1097.58" cy="163.022" r="20" transform="rotate(111.427 1097.58 163.022)" fill="white"/>
<circle cx="1073.17" cy="215.063" r="20" transform="rotate(118.671 1073.17 215.063)" fill="white"/>
<circle cx="1042.11" cy="264.008" r="20" transform="rotate(126.033 1042.11 264.008)" fill="white"/>
<circle cx="1005.7" cy="307.997" r="20" transform="rotate(133.126 1005.7 307.997)" fill="white"/>
<circle cx="964.039" cy="347.176" r="20" transform="rotate(140.207 964.039 347.176)" fill="white"/>
<circle cx="917.515" cy="381.058" r="20" transform="rotate(147.533 917.515 381.058)" fill="white"/>
<circle cx="867.36" cy="408.69" r="20" transform="rotate(154.725 867.36 408.69)" fill="white"/>
<circle cx="814.167" cy="429.774" r="20" transform="rotate(161.804 814.167 429.774)" fill="white"/>
<circle cx="758.615" cy="444.002" r="20" transform="rotate(169.201 758.615 444.002)" fill="white"/>
<circle cx="701.78" cy="451.115" r="20" transform="rotate(176.242 701.78 451.115)" fill="white"/>
<circle cx="642.708" cy="451.001" r="20" transform="rotate(-176.242 642.708 451.001)" fill="white"/>
<circle cx="585.929" cy="443.669" r="20" transform="rotate(-169.201 585.929 443.669)" fill="white"/>
<circle cx="530.488" cy="429.242" r="20" transform="rotate(-161.804 530.488 429.242)" fill="white"/>
<circle cx="477.45" cy="407.993" r="20" transform="rotate(-154.725 477.45 407.993)" fill="white"/>
<circle cx="427.265" cy="380.1" r="20" transform="rotate(-147.322 427.265 380.1)" fill="white"/>
<circle cx="381.178" cy="346.292" r="20" transform="rotate(-140.207 381.178 346.292)" fill="white"/>
<circle cx="339.741" cy="307.099" r="20" transform="rotate(-133.126 339.741 307.099)" fill="white"/>
<circle cx="303.147" cy="262.594" r="20" transform="rotate(-125.824 303.147 262.594)" fill="white"/>
<circle cx="272.694" cy="214.306" r="20" transform="rotate(-118.671 272.694 214.306)" fill="white"/>
<circle cx="248.458" cy="162.411" r="20" transform="rotate(-111.427 248.458 162.411)" fill="white"/>
<circle cx="231.153" cy="108.617" r="20" transform="rotate(-104.293 231.153 108.617)" fill="white"/>
<circle cx="220.607" cy="52.5062" r="20" transform="rotate(-97.0655 220.607 52.5062)" fill="white"/>
<circle cx="217.154" cy="-7.59427" r="20" transform="rotate(-89.5577 217.154 -7.59427)" fill="white"/>
</g>
<g opacity="0.11">
<circle cx="1196.28" cy="-1" r="20" transform="rotate(90 1196.28 -1)" fill="white"/>
<circle cx="1192.98" cy="58.0621" r="20" transform="rotate(96.4049 1192.98 58.0621)" fill="white"/>
<circle cx="1182.89" cy="117.104" r="20" transform="rotate(102.985 1182.89 117.104)" fill="white"/>
<circle cx="1166.3" cy="173.965" r="20" transform="rotate(109.491 1166.3 173.965)" fill="white"/>
<circle cx="1142.95" cy="229.354" r="20" transform="rotate(116.126 1142.95 229.354)" fill="white"/>
<circle cx="1113.55" cy="281.418" r="20" transform="rotate(122.678 1113.55 281.418)" fill="white"/>
<circle cx="1078.47" cy="329.708" r="20" transform="rotate(129.167 1078.47 329.708)" fill="white"/>
<circle cx="1038.13" cy="373.716" r="20" transform="rotate(135.625 1038.13 373.716)" fill="white"/>
<circle cx="992.701" cy="413.156" r="20" transform="rotate(142.294 992.701 413.156)" fill="white"/>
<circle cx="943.453" cy="446.901" r="20" transform="rotate(148.796 943.453 446.901)" fill="white"/>
<circle cx="890.629" cy="474.837" r="20" transform="rotate(155.365 890.629 474.837)" fill="white"/>
<circle cx="835.028" cy="496.507" r="20" transform="rotate(161.804 835.028 496.507)" fill="white"/>
<circle cx="777.178" cy="511.679" r="20" transform="rotate(168.545 777.178 511.679)" fill="white"/>
<circle cx="718.043" cy="520.111" r="20" transform="rotate(175.138 718.043 520.111)" fill="white"/>
<circle cx="656.281" cy="521.728" r="20" transform="rotate(-178.231 656.281 521.728)" fill="white"/>
<circle cx="596.806" cy="516.448" r="20" transform="rotate(-171.835 596.806 516.448)" fill="white"/>
<circle cx="538.347" cy="504.428" r="20" transform="rotate(-165.272 538.347 504.428)" fill="white"/>
<circle cx="481.614" cy="485.764" r="20" transform="rotate(-158.573 481.614 485.764)" fill="white"/>
<circle cx="427.404" cy="460.716" r="20" transform="rotate(-151.964 427.404 460.716)" fill="white"/>
<circle cx="376.453" cy="429.665" r="20" transform="rotate(-145.433 376.453 429.665)" fill="white"/>
<circle cx="329.425" cy="393.081" r="20" transform="rotate(-138.957 329.425 393.081)" fill="white"/>
<circle cx="286.901" cy="351.481" r="20" transform="rotate(-132.502 286.901 351.481)" fill="white"/>
<circle cx="248.924" cy="304.764" r="20" transform="rotate(-125.824 248.924 304.764)" fill="white"/>
<circle cx="216.84" cy="254.518" r="20" transform="rotate(-119.305 216.84 254.518)" fill="white"/>
<circle cx="190.618" cy="200.766" r="20" transform="rotate(-112.713 190.618 200.766)" fill="white"/>
<circle cx="171.008" cy="145.266" r="20" transform="rotate(-106.248 171.008 145.266)" fill="white"/>
<circle cx="157.737" cy="87.5025" r="20" transform="rotate(-99.7028 157.737 87.5025)" fill="white"/>
<circle cx="151.051" cy="27.647" r="20" transform="rotate(-93.0952 151.051 27.647)" fill="white"/>
</g>
<g opacity="0.08">
<circle cx="1267.14" cy="-1.5" r="20" transform="rotate(90 1267.14 -1.5)" fill="white"/>
<circle cx="1264.11" cy="58.8057" r="20" transform="rotate(95.7437 1264.11 58.8057)" fill="white"/>
<circle cx="1254.37" cy="121.524" r="20" transform="rotate(101.893 1254.37 121.524)" fill="white"/>
<circle cx="1238.26" cy="181.898" r="20" transform="rotate(107.98 1238.26 181.898)" fill="white"/>
<circle cx="1216.05" cy="239.75" r="20" transform="rotate(113.995 1216.05 239.75)" fill="white"/>
<circle cx="1188.01" cy="294.78" r="20" transform="rotate(119.939 1188.01 294.78)" fill="white"/>
<circle cx="1153.86" cy="347.322" r="20" transform="rotate(126.033 1153.86 347.322)" fill="white"/>
<circle cx="1115.03" cy="395.266" r="20" transform="rotate(131.877 1115.03 395.266)" fill="white"/>
<circle cx="1070.9" cy="439.442" r="20" transform="rotate(137.915 1070.9 439.442)" fill="white"/>
<circle cx="1022.82" cy="478.46" r="20" transform="rotate(143.758 1022.82 478.46)" fill="white"/>
<circle cx="970.542" cy="512.509" r="20" transform="rotate(149.85 970.542 512.509)" fill="white"/>
<circle cx="915.233" cy="540.762" r="20" transform="rotate(155.791 915.233 540.762)" fill="white"/>
<circle cx="857.188" cy="563.071" r="20" transform="rotate(161.804 857.188 563.071)" fill="white"/>
<circle cx="797.1" cy="579.139" r="20" transform="rotate(167.889 797.1 579.139)" fill="white"/>
<circle cx="735.686" cy="588.795" r="20" transform="rotate(174.036 735.686 588.795)" fill="white"/>
<circle cx="671.294" cy="591.996" r="20" transform="rotate(-179.779 671.294 591.996)" fill="white"/>
<circle cx="609.269" cy="588.55" r="20" transform="rotate(-174.036 609.269 588.55)" fill="white"/>
<circle cx="547.932" cy="578.661" r="20" transform="rotate(-167.889 547.932 578.661)" fill="white"/>
<circle cx="487.969" cy="562.38" r="20" transform="rotate(-161.804 487.969 562.38)" fill="white"/>
<circle cx="430.089" cy="539.888" r="20" transform="rotate(-155.791 430.089 539.888)" fill="white"/>
<circle cx="374.978" cy="511.491" r="20" transform="rotate(-149.85 374.978 511.491)" fill="white"/>
<circle cx="322.926" cy="477.345" r="20" transform="rotate(-143.758 322.926 477.345)" fill="white"/>
<circle cx="275.084" cy="438.276" r="20" transform="rotate(-137.915 275.084 438.276)" fill="white"/>
<circle cx="231.202" cy="394.102" r="20" transform="rotate(-131.877 231.202 394.102)" fill="white"/>
<circle cx="192.077" cy="345.481" r="20" transform="rotate(-125.824 192.077 345.481)" fill="white"/>
<circle cx="158.682" cy="293.767" r="20" transform="rotate(-119.939 158.682 293.767)" fill="white"/>
<circle cx="130.833" cy="238.879" r="20" transform="rotate(-113.995 130.833 238.879)" fill="white"/>
<circle cx="108.321" cy="179.748" r="20" transform="rotate(-107.764 108.321 179.748)" fill="white"/>
<circle cx="92.8037" cy="121.052" r="20" transform="rotate(-101.893 92.8037 121.052)" fill="white"/>
<circle cx="83.1384" cy="58.5727" r="20" transform="rotate(-95.7437 83.1384 58.5727)" fill="white"/>
<circle cx="80.1538" cy="-6.17825" r="20" transform="rotate(-89.5577 80.1538 -6.17825)" fill="white"/>
</g>
<g opacity="0.05">
<circle cx="1326.2" cy="9" r="20" transform="rotate(-90 1326.2 9)" fill="white"/>
<circle cx="21.1608" cy="44.7812" r="20" transform="rotate(86.9048 21.1608 44.7812)" fill="white"/>
<circle cx="27.5586" cy="107.377" r="20" transform="rotate(81.395 27.5586 107.377)" fill="white"/>
<circle cx="39.6472" cy="167.83" r="20" transform="rotate(75.9252 39.6472 167.83)" fill="white"/>
<circle cx="58.0943" cy="228.753" r="20" transform="rotate(70.2935 58.0943 228.753)" fill="white"/>
<circle cx="82.0924" cy="286.863" r="20" transform="rotate(64.7253 82.0924 286.863)" fill="white"/>
<circle cx="111.245" cy="341.799" r="20" transform="rotate(59.217 111.245 341.799)" fill="white"/>
<circle cx="147.424" cy="396.334" r="20" transform="rotate(53.5487 147.424 396.334)" fill="white"/>
<circle cx="186.161" cy="443.99" r="20" transform="rotate(48.1232 186.161 443.99)" fill="white"/>
<circle cx="232.055" cy="490.464" r="20" transform="rotate(42.5016 232.055 490.464)" fill="white"/>
<circle cx="279.115" cy="529.729" r="20" transform="rotate(37.0786 279.115 529.729)" fill="white"/>
<circle cx="329.791" cy="564.523" r="20" transform="rotate(31.6257 329.791 564.523)" fill="white"/>
<circle cx="388.039" cy="596.612" r="20" transform="rotate(25.9132 388.039 596.612)" fill="white"/>
<circle cx="445.822" cy="621.325" r="20" transform="rotate(20.3522 445.822 621.325)" fill="white"/>
<circle cx="502.193" cy="639.389" r="20" transform="rotate(14.9452 502.193 639.389)" fill="white"/>
<circle cx="566.25" cy="653.288" r="20" transform="rotate(9.26387 566.25 653.288)" fill="white"/>
<circle cx="628.484" cy="660.497" r="20" transform="rotate(3.75782 628.484 660.497)" fill="white"/>
<circle cx="695.868" cy="661.615" r="20" transform="rotate(-1.99018 695.868 661.615)" fill="white"/>
<circle cx="759.053" cy="656.407" r="20" transform="rotate(-7.50568 759.053 656.407)" fill="white"/>
<circle cx="819.389" cy="645.576" r="20" transform="rotate(-12.9848 819.389 645.576)" fill="white"/>
<circle cx="881.471" cy="628.083" r="20" transform="rotate(-18.6283 881.471 628.083)" fill="white"/>
<circle cx="940.312" cy="605.047" r="20" transform="rotate(-24.2088 940.312 605.047)" fill="white"/>
<circle cx="995.861" cy="576.844" r="20" transform="rotate(-29.7279 995.861 576.844)" fill="white"/>
<circle cx="1048.02" cy="543.783" r="20" transform="rotate(-35.1954 1048.02 543.783)" fill="white"/>
<circle cx="1099.83" cy="503.374" r="20" transform="rotate(-40.835 1099.83 503.374)" fill="white"/>
<circle cx="1144.34" cy="461.15" r="20" transform="rotate(-46.249 1144.34 461.15)" fill="white"/>
<circle cx="1184.83" cy="414.81" r="20" transform="rotate(-51.668 1184.83 414.81)" fill="white"/>
<circle cx="1223" cy="361.46" r="20" transform="rotate(-57.3225 1223 361.46)" fill="white"/>
<circle cx="1254.11" cy="307.542" r="20" transform="rotate(-62.8122 1254.11 307.542)" fill="white"/>
<circle cx="1280.17" cy="250.292" r="20" transform="rotate(-68.3589 1280.17 250.292)" fill="white"/>
<circle cx="1300.77" cy="190.051" r="20" transform="rotate(-73.9687 1300.77 190.051)" fill="white"/>
<circle cx="1315.52" cy="127.247" r="20" transform="rotate(-79.6395 1315.52 127.247)" fill="white"/>
<circle cx="1323.82" cy="65.1407" r="20" transform="rotate(-85.1385 1323.82 65.1407)" fill="white"/>
</g>
</svg>
